<?xml version="1.0" standalone="no"?>
<!DOCTYPE svg PUBLIC "-//W3C//DTD SVG 20010904//EN"
 "http://www.w3.org/TR/2001/REC-SVG-20010904/DTD/svg10.dtd">
<svg version="1.0" xmlns="http://www.w3.org/2000/svg"
 width="260.000000pt" height="260.000000pt" viewBox="0 0 260.000000 260.000000"
 preserveAspectRatio="xMidYMid meet">
<metadata>
Created by potrace 1.11, written by Peter Selinger 2001-2013
</metadata>
<g transform="translate(0.000000,260.000000) scale(0.100000,-0.100000)"
fill="#000000" stroke="none">
<path d="M0 1300 l0 -1300 1300 0 1300 0 0 1300 0 1300 -1300 0 -1300 0 0
-1300z m280 1244 c0 -3 38 -168 84 -367 46 -199 92 -407 102 -462 l17 -100 24
125 c12 69 63 278 111 465 l89 340 121 3 c67 1 122 0 122 -2 0 -3 40 -161 90
-352 49 -190 96 -385 105 -432 26 -147 26 -147 51 -12 13 69 59 276 102 460
l79 335 125 3 125 3 -18 -68 c-10 -37 -77 -303 -150 -590 l-132 -523 -143 0
c-127 0 -143 2 -148 18 -21 66 -169 658 -187 746 l-23 109 -22 -114 c-13 -63
-60 -259 -106 -436 l-83 -323 -142 0 -142 0 -15 53 c-8 28 -73 284 -145 567
-72 283 -134 525 -137 538 -6 22 -6 22 120 22 69 0 126 -3 126 -6z m1981 -8
c192 -35 279 -122 279 -282 0 -122 -42 -204 -126 -244 l-46 -23 47 -18 c100
-38 146 -111 153 -239 3 -70 0 -95 -17 -142 -26 -66 -84 -129 -153 -164 -91
-46 -152 -54 -435 -54 l-263 0 0 590 0 590 243 0 c158 -1 268 -5 318 -14z
m-1127 -1654 c61 -191 124 -403 141 -471 l32 -123 27 113 c15 63 78 274 140
469 l113 355 127 3 c101 2 127 0 124 -10 -2 -8 -91 -273 -198 -591 l-195 -577
-139 2 -139 3 -194 570 c-106 314 -196 578 -199 588 -5 16 5 17 123 17 l128 0
109 -348z"/>
<path d="M1950 2215 l0 -137 118 4 c168 6 212 34 212 133 0 99 -44 126 -212
133 l-118 5 0 -138z"/>
<path d="M1950 1731 l0 -151 108 0 c180 1 241 36 249 142 3 41 -1 60 -17 86
-31 50 -77 65 -217 70 l-123 4 0 -151z"/>
</g>
</svg>
